<svg xmlns="http://www.w3.org/2000/svg" width="36.663" height="36.664"><path fill="#FFF" d="M32.305 0H4.357A4.352 4.352 0 0 0 0 4.349v27.967c0 2.4 1.95 4.348 4.357 4.348h27.947a4.353 4.353 0 0 0 4.358-4.348V4.349A4.351 4.351 0 0 0 32.305 0m-5.953 5.729c0-.632.513-1.146 1.146-1.146h3.438c.632 0 1.145.514 1.145 1.146v3.438c0 .633-.513 1.146-1.145 1.146h-3.438a1.146 1.146 0 0 1-1.146-1.146V5.729zm-7.978 5.612c3.894 0 7.051 3.149 7.051 7.033 0 3.885-3.157 7.034-7.051 7.034s-7.051-3.148-7.051-7.034c0-3.884 3.157-7.033 7.051-7.033M33.226 32.08c0 .633-.513 1.146-1.146 1.146H4.583a1.147 1.147 0 0 1-1.146-1.146V14.895H8.02c-.597.858-.798 2.462-.798 3.479 0 6.135 5.003 11.127 11.152 11.127s11.153-4.992 11.153-11.127c0-1.018-.145-2.596-.885-3.479h4.583V32.08z"/></svg>