<svg xmlns="http://www.w3.org/2000/svg" width="37.453" height="31.21"><path fill="#FFF" d="M36.421.577a15.112 15.112 0 0 1-4.884 1.909A7.575 7.575 0 0 0 25.93 0c-4.24 0-7.682 3.528-7.682 7.879 0 .618.066 1.217.198 1.794-6.385-.329-12.047-3.462-15.839-8.235a8.02 8.02 0 0 0-1.04 3.966c0 2.731 1.356 5.144 3.418 6.557a7.547 7.547 0 0 1-3.481-.981v.096c0 3.819 2.648 7.004 6.167 7.725a7.292 7.292 0 0 1-2.025.277c-.495 0-.979-.047-1.447-.139.979 3.129 3.815 5.408 7.179 5.469a15.172 15.172 0 0 1-9.544 3.375c-.619 0-1.232-.037-1.833-.109a21.388 21.388 0 0 0 11.778 3.537c14.136 0 21.863-12.004 21.863-22.417 0-.343-.006-.685-.021-1.021a15.749 15.749 0 0 0 3.832-4.078 15.04 15.04 0 0 1-4.412 1.24 7.861 7.861 0 0 0 3.38-4.358"/></svg>