<svg xmlns="http://www.w3.org/2000/svg" xmlns:xlink="http://www.w3.org/1999/xlink" width="126" height="72"><defs><path id="a" d="M0 0h126v72H0z"/></defs><clipPath id="b"><use xlink:href="#a" overflow="visible"/></clipPath><path clip-path="url(#b)" fill="#FFF" d="M124.523 64.503a8.35 8.35 0 0 0-.426-.816c-2.172-3.91-6.324-8.711-12.449-14.401l-.129-.134-.066-.063-.066-.066h-.063c-2.781-2.651-4.543-4.434-5.281-5.344-1.348-1.738-1.652-3.5-.914-5.281.523-1.348 2.477-4.19 5.867-8.538a447.262 447.262 0 0 0 4.234-5.539c7.52-9.996 10.777-16.383 9.777-19.164l-.387-.649c-.262-.39-.934-.75-2.02-1.074-1.086-.327-2.477-.383-4.172-.163l-18.772.127c-.301-.105-.738-.099-1.301.034l-.852.195-.323.166-.258.195c-.219.129-.457.354-.719.683a4.443 4.443 0 0 0-.648 1.142c-2.047 5.258-4.367 10.145-6.977 14.663-1.609 2.695-3.086 5.031-4.434 7.009-1.348 1.976-2.477 3.434-3.387 4.366-.914.935-1.738 1.685-2.477 2.246-.742.567-1.305.806-1.695.72-.391-.091-.762-.177-1.109-.263a4.288 4.288 0 0 1-1.465-1.597c-.371-.672-.621-1.52-.75-2.543a28.65 28.65 0 0 1-.23-2.637c-.02-.738-.008-1.785.035-3.129.043-1.349.066-2.263.066-2.738 0-1.653.031-3.446.094-5.379.066-1.935.121-3.465.164-4.594.043-1.13.066-2.324.066-3.587 0-1.258-.078-2.245-.23-2.965a9.987 9.987 0 0 0-.684-2.086c-.305-.672-.75-1.194-1.336-1.562-.586-.371-1.313-.664-2.18-.883-2.305-.521-5.238-.802-8.8-.849-8.082-.086-13.274.438-15.579 1.567-.914.476-1.738 1.129-2.476 1.953-.781.957-.891 1.479-.328 1.565 2.609.392 4.453 1.325 5.543 2.802l.39.784c.305.563.61 1.563.911 2.996.304 1.435.5 3.021.585 4.758.219 3.173.219 5.888 0 8.149-.214 2.257-.421 4.019-.617 5.277-.195 1.262-.488 2.28-.879 3.065-.39.782-.652 1.258-.785 1.435-.129.172-.238.28-.324.323a4.815 4.815 0 0 1-1.762.328c-.605 0-1.344-.304-2.215-.914-.867-.608-1.769-1.444-2.703-2.512-.933-1.062-1.988-2.55-3.164-4.464-1.172-1.911-2.386-4.168-3.648-6.778l-1.043-1.89c-.653-1.215-1.543-2.985-2.672-5.313a100.975 100.975 0 0 1-2.996-6.745c-.348-.91-.871-1.605-1.567-2.087l-.324-.194c-.219-.172-.566-.356-1.043-.556a7.006 7.006 0 0 0-1.5-.422l-17.858.133c-1.824 0-3.063.414-3.715 1.238l-.262.392C.066 5.113 0 5.46 0 5.938c0 .48.129 1.065.391 1.762a215.077 215.077 0 0 0 8.507 17.725c3.063 5.696 5.723 10.278 7.981 13.754a161.747 161.747 0 0 0 6.91 9.84c2.348 3.086 3.902 5.063 4.66 5.935a43.02 43.02 0 0 0 1.793 1.953l1.629 1.565c1.043 1.043 2.574 2.293 4.598 3.746 2.02 1.457 4.258 2.891 6.711 4.305 2.457 1.41 5.312 2.563 8.574 3.453 3.258.892 6.43 1.25 9.516 1.074h7.496c1.52-.129 2.672-.609 3.453-1.433l.258-.324c.176-.262.34-.665.488-1.208.152-.542.23-1.14.23-1.792-.043-1.868.098-3.551.422-5.051.324-1.496.695-2.625 1.109-3.388.414-.762.879-1.401 1.402-1.922.52-.522.891-.836 1.109-.944.215-.11.387-.185.52-.231 1.043-.347 2.27-.007 3.684 1.012 1.41 1.024 2.734 2.281 3.977 3.781 1.238 1.5 2.727 3.184 4.461 5.051 1.742 1.867 3.262 3.258 4.563 4.172l1.305.781c.871.524 2 1 3.391 1.435 1.391.437 2.605.547 3.648.327l16.688-.262c1.648 0 2.934-.272 3.844-.815.914-.544 1.453-1.142 1.629-1.789.176-.653.184-1.392.035-2.22-.158-.824-.31-1.402-.459-1.727zm0 0"/></svg>