<?xml version="1.0" encoding="utf-8"?>
<!-- Generator: Adobe Illustrator 16.0.0, SVG Export Plug-In . SVG Version: 6.00 Build 0)  -->
<!DOCTYPE svg PUBLIC "-//W3C//DTD SVG 1.1//EN" "http://www.w3.org/Graphics/SVG/1.1/DTD/svg11.dtd">
<svg version="1.1" id="Layer_1" xmlns="http://www.w3.org/2000/svg" xmlns:xlink="http://www.w3.org/1999/xlink" x="0px" y="0px"
	 width="46px" height="57.727px" viewBox="0 0 46 57.727" enable-background="new 0 0 46 57.727" xml:space="preserve">
<g>
	<path fill-rule="evenodd" clip-rule="evenodd" fill="#E45028" d="M23.122,57.727c-0.062,0-0.123,0-0.185,0
		c-0.072-0.075-0.135-0.164-0.217-0.225c-2.822-2.075-5.493-4.324-8.019-6.756c-2.671-2.571-5.124-5.331-7.328-8.306
		c-1.932-2.606-3.591-5.385-4.87-8.378c-1.147-2.684-1.96-5.454-2.283-8.364C-0.254,21.4,0.36,17.281,2.184,13.349
		c1.403-3.024,3.372-5.619,5.893-7.794c1.649-1.423,3.468-2.591,5.453-3.483c1.698-0.764,3.453-1.367,5.3-1.667
		C19.706,0.261,20.584,0.134,21.462,0c1.045,0,2.09,0,3.136,0c0.117,0.029,0.232,0.072,0.352,0.083
		c2.025,0.199,3.996,0.612,5.915,1.316c4.017,1.475,7.367,3.869,10.053,7.188c2.196,2.713,3.689,5.781,4.486,9.182
		c1.039,4.431,0.682,8.784-0.766,13.069c-1.745,5.164-4.655,9.661-8.084,13.835c-1.517,1.847-3.16,3.595-4.81,5.326
		c-2.173,2.279-4.521,4.374-6.977,6.347C24.209,56.794,23.67,57.266,23.122,57.727z"/>
</g>
<path fill="#FFFFFF" d="M29.899,18.672c-0.405,0.546-1.076,0.881-1.873,0.918c-1.147,0.053-1.704-0.943-1.803-3.063
	c-0.083-1.801,0.299-5.251,0.236-6.589l-0.044-0.956C26.033,9,24.257,16.46,23.295,17.782c-0.283,0.428-0.761,0.818-1.349,0.845
	c-1.354,0.063-2.288-1.459-2.397-3.817c-0.072-1.546,0.211-4.401,0.06-7.651c-0.016-0.352-0.086-0.492-0.15-0.489
	c-1.274,0.06-4.118,8.638-4.255,12.923c-0.019,0.624,0.094,1.672,0.247,2.225c-1.538-0.104-3.183-0.124-3.255-1.669
	c-0.066-1.418,0.672-4.438,1.554-7.114c0.616-1.865,3.002-8.267,5.52-8.383c2.788-0.129,2.463,4.916,2.685,9.68
	c0.035,0.764,0.061,1.322,0.16,1.733c2.617-7.594,3.104-9.837,4.665-9.909c0.894-0.042,1.586,1.124,1.658,2.686
	c0.042,0.908,0.031,2.745,0.084,3.86C28.754,17.72,29.271,17.537,29.899,18.672z"/>
<path fill="#FFFFFF" d="M38.431,11.342c-0.021,1.008-2.636,5.102-5.12,5.051c-1.365-0.028-2.047-0.912-2.022-2.075
	c0.021-1.009,0.507-2.024,0.878-2.686c-2.384-0.405-2.671-1.514-2.658-2.135c0.025-1.242,1.219-1.87,1.979-1.854
	c0.605,0.012,0.782,0.513,0.775,0.839c-0.008,0.372-0.172,0.819-0.433,1.356c1.175,0.289,3.101,0.313,3.082,1.229
	c-0.017,0.837-1.428,2.223-1.451,3.356c-0.009,0.418,0.172,0.655,0.499,0.662c1.304,0.027,2.979-2.92,3.739-4.365
	C38.239,10.825,38.437,11.032,38.431,11.342z"/>
<path fill="#FFFFFF" d="M40.108,22.326c-0.015,0.735-1.92,3.718-3.729,3.681c-0.996-0.021-1.492-0.665-1.475-1.513
	c0.016-0.735,0.37-1.475,0.64-1.957c-1.736-0.295-1.946-1.104-1.937-1.556c0.019-0.905,0.888-1.362,1.442-1.351
	c0.44,0.009,0.568,0.374,0.563,0.611c-0.005,0.271-0.125,0.597-0.313,0.989c0.855,0.211,2.258,0.228,2.244,0.895
	c-0.013,0.611-1.04,1.62-1.057,2.446c-0.007,0.305,0.126,0.478,0.363,0.483c0.95,0.02,2.171-2.129,2.725-3.181
	C39.97,21.949,40.114,22.1,40.108,22.326z"/>
<path fill="#FFFFFF" d="M40.399,29.777c-0.012,0.578-1.513,2.928-2.938,2.899c-0.783-0.017-1.176-0.523-1.161-1.192
	c0.012-0.578,0.291-1.161,0.504-1.541c-1.368-0.232-1.533-0.869-1.526-1.226c0.016-0.713,0.7-1.073,1.137-1.064
	c0.348,0.007,0.448,0.294,0.444,0.482c-0.004,0.213-0.099,0.471-0.248,0.778c0.674,0.166,1.78,0.18,1.77,0.706
	c-0.01,0.48-0.82,1.275-0.834,1.927c-0.004,0.239,0.1,0.376,0.287,0.379c0.748,0.016,1.711-1.677,2.146-2.506
	C40.29,29.48,40.403,29.598,40.399,29.777z"/>
<path fill="#FFFFFF" d="M37.925,15.604c0.018-0.846,0.938-1.468,2.033-1.445c1.114,0.022,1.97,0.558,1.956,1.238
	c-0.022,1.095-1.14,2.186-2.254,2.164C38.546,17.538,37.912,16.245,37.925,15.604z"/>
<path fill="#FFFFFF" d="M21.712,33.859c0.011-0.529,0.586-0.918,1.271-0.904c0.696,0.015,1.231,0.35,1.223,0.774
	c-0.014,0.684-0.712,1.367-1.409,1.353S21.704,34.258,21.712,33.859z"/>
<path fill="#FFFFFF" d="M12.889,24.612c0.011-0.53,0.587-0.918,1.271-0.904c0.697,0.014,1.232,0.349,1.223,0.774
	c-0.014,0.684-0.712,1.366-1.409,1.352C13.277,25.82,12.881,25.012,12.889,24.612z"/>
<path fill="#FFFFFF" d="M25.817,28.532c-0.025,1.276-1.092,2.851-3.67,2.798c-1.468-0.03-2.513-0.729-2.498-1.469
	c0.004-0.217,0.149-0.419,0.381-0.554c0.391,0.237,0.871,0.49,1.79,0.509c1.442,0.029,2.114-0.965,2.134-1.96
	c0.02-0.969-0.565-1.672-1.434-1.715c-0.74-0.015-1.417-0.016-1.92,0.267c-0.418-0.148-0.617-0.446-0.611-0.727
	c0.011-0.536,0.449-0.744,1.011-0.733c0.243,0.005,0.498,0.048,0.75,0.118c0.901-0.313,2.236-1.282,2.264-2.661
	c0.023-1.173-0.97-1.909-2.616-1.943c-0.345-0.007-0.703,0.024-1.074,0.067c0.086,0.143,0.135,0.284,0.132,0.424
	c-1.659,3.082-1.956,9.459-0.81,11.487c-0.17,0.188-0.989,0.273-1.359,0.266c-0.919-0.019-1.508-0.566-1.604-1.463
	c-0.364-2.79,0.568-7.138,1.365-9.292c0.109-0.343,0.23-0.621,0.363-0.874c-0.605,0.255-1.136,0.59-1.526,0.952
	c-0.419-0.123-0.707-0.397-0.701-0.666c0.002-0.089,0.029-0.165,0.082-0.254c0.292-0.492,2.488-1.749,5.385-1.689
	c3.765,0.078,4.802,1.784,4.78,2.907c-0.034,1.62-1.78,2.76-3.091,3.128C25.004,25.873,25.845,27.243,25.817,28.532z"/>
<path fill="#FFFFFF" d="M35.944,22.531c-0.011,0.527-1.996,3.944-3.897,3.904c-0.776-0.016-1.268-0.442-1.43-1.334
	c-0.556,0.669-1.304,1.292-2.136,1.274c-0.972-0.02-1.444-0.64-1.421-1.806c0.01-0.471,0.127-1.413,0.146-2.371
	c0.013-0.623-0.009-0.944-0.097-1.404c0.404-0.061,0.794-0.122,1.183-0.114c0.679,0.014,0.964,0.353,0.948,1.13
	c-0.01,0.458-0.157,1.565-0.173,2.329c-0.011,0.527,0.082,0.737,0.234,0.74c0.208,0.004,0.757-0.345,1.287-1.153
	c0.054-0.596,0.136-1.219,0.147-1.746c0.01-0.5-0.024-0.875-0.104-1.098c0.237-0.038,0.515-0.073,0.766-0.068
	c0.888,0.018,1.28,0.483,1.258,1.58c-0.007,0.361-0.192,1.315-0.207,1.981c-0.013,0.638,0.064,0.945,0.314,0.95
	c0.471,0.009,1.824-1.656,2.482-3.294C35.582,21.941,35.953,22.101,35.944,22.531z"/>
<path fill="#FFFFFF" d="M32.93,30.624c-0.962,0.032-1.921,0.389-2.757,0.916l-0.006,0.303c-0.034,1.661-0.711,4.543-2.497,4.506
	c-0.742-0.015-1.151-0.462-1.135-1.236c0.024-1.201,0.981-2.478,2.213-3.444c0.002-0.073,0.003-0.137-0.007-0.19
	c-0.362,0.37-0.763,0.55-1.191,0.541c-0.711-0.015-1.108-0.504-1.092-1.328c0.025-1.255,1.378-2.45,2.674-2.424
	c0.429,0.009,0.853,0.186,0.846,0.53c-0.005,0.262-0.28,0.423-0.848,0.557c-0.069-0.178-0.162-0.254-0.256-0.255
	c-0.449-0.01-1.013,0.972-1.026,1.641c-0.006,0.293,0.074,0.409,0.2,0.411c0.271,0.006,0.724-0.622,0.578-1.189
	c0.51-0.324,0.645-0.321,0.843-0.317c0.439,0.009,0.632,0.306,0.688,1.122c0.813-0.411,1.654-0.656,2.365-0.642
	C32.783,30.129,33.01,30.291,32.93,30.624z M28.672,32.826c-0.685,0.8-1.122,1.712-1.139,2.559c-0.005,0.22,0.044,0.366,0.17,0.369
	C28.184,35.763,28.542,34.098,28.672,32.826z"/>
<path fill="#FFFFFF" d="M37.417,30.464c-0.01,0.502-1.758,3.132-3.7,3.092c-1.474-0.03-2.519-1.076-2.489-2.508
	c0.028-1.38,0.929-2.458,2.057-2.435c0.805,0.017,1.275,0.538,1.258,1.395c-0.02,0.92-0.733,1.585-1.358,2
	c0.202,0.339,0.491,0.533,0.847,0.54c0.804,0.017,1.88-0.965,2.693-2.422C37.145,29.999,37.425,30.12,37.417,30.464z M32.867,30.601
	c-0.004,0.199,0.003,0.387,0.03,0.555c0.331-0.338,0.59-0.73,0.6-1.211c0.005-0.229-0.075-0.388-0.17-0.39
	C33.129,29.55,32.878,30.069,32.867,30.601z"/>
<polygon fill-rule="evenodd" clip-rule="evenodd" fill="#FFFFFF" points="0.001,17.166 0.001,17.166 0,17.168 "/>
<g>
	<path fill-rule="evenodd" clip-rule="evenodd" fill="#FFFFFF" d="M7.077,26.606c0.144-0.144,0.288-0.287,0.471-0.47
		c0.049,0.356-0.01,0.636-0.173,0.897c-0.023,0.05-0.047,0.1-0.07,0.149c-0.046,0.145-0.142,0.246-0.27,0.321
		c-0.028,0.02-0.058,0.04-0.087,0.06c-0.051,0.032-0.103,0.063-0.154,0.095c-0.034,0.009-0.067,0.016-0.101,0.024
		c0.003,0.051,0.006,0.102,0.01,0.153c0.523,0.103,1.042,0.128,1.548-0.088c0.483-0.206,0.779-0.624,1.122-0.988
		c0.045-0.108,0.126-0.181,0.224-0.24c0.067-0.116,0.156-0.212,0.275-0.275c0.076-0.116,0.182-0.193,0.308-0.243
		c0.204-0.245,0.502-0.265,0.782-0.331c-0.036-0.3-0.383-0.274-0.506-0.484c-0.836-0.55-1.703-1.021-2.738-1.053
		c-0.054,0.016-0.108,0.033-0.162,0.049c-0.111,0.038-0.22,0.078-0.331,0.112c-0.983,0.313-1.859,0.87-2.822,1.227
		c-0.724,0.269-1.47,0.368-2.238,0.312c-0.229-0.017-0.443-0.188-0.684-0.064c0.405,0.737,1.063,1.186,1.799,1.524
		c0.85,0.391,1.717,0.249,2.579,0.022c0.213-0.1,0.425-0.201,0.638-0.301C6.688,26.879,6.883,26.742,7.077,26.606z"/>
	<path fill-rule="evenodd" clip-rule="evenodd" fill="#FFFFFF" d="M13.831,29.483c-0.501-0.168-1.014-0.301-1.528-0.104
		c-0.724,0.278-1.449,0.55-2.188,0.785c-0.593,0.188-1.192,0.338-1.827,0.276c-0.136-0.015-0.303-0.093-0.431,0.101
		c1.2,0.49,2.348,1.142,3.715,0.786c0.385-0.155,0.771-0.31,1.156-0.465c0.028-0.018,0.057-0.035,0.085-0.052
		c0.539-0.27,1.045-0.602,1.608-0.822C14.385,29.633,14.041,29.635,13.831,29.483z"/>
	<path fill-rule="evenodd" clip-rule="evenodd" fill="#FFFFFF" d="M9.391,19.612c-0.351-0.195-0.803-0.186-1.177-0.164
		C7.7,19.478,7.206,19.48,6.707,19.378c-0.039-0.019-0.078-0.038-0.117-0.056c0.14,0.388,0.424,0.667,0.697,0.962
		c0.175,0.189,0.35,0.23,0.592,0.248c0.637,0.046,1.251-0.163,1.884-0.125c0.096,0.024,0.193,0.049,0.289,0.074
		C9.917,20.124,9.712,19.791,9.391,19.612z"/>
	<path fill-rule="evenodd" clip-rule="evenodd" fill="#FFFFFF" d="M16.559,34.573c-0.5-0.211-0.979-0.221-1.413,0.129
		c-0.244,0.198-0.509,0.335-0.852,0.44c0.499,0.243,0.986,0.342,1.483,0.268c0.343-0.05,0.692-0.16,0.871-0.526
		C16.717,34.739,16.75,34.653,16.559,34.573z"/>
</g>
</svg>
