<?xml version="1.0" encoding="utf-8"?>
<!-- Generator: Adobe Illustrator 16.0.0, SVG Export Plug-In . SVG Version: 6.00 Build 0)  -->
<!DOCTYPE svg PUBLIC "-//W3C//DTD SVG 1.1//EN" "http://www.w3.org/Graphics/SVG/1.1/DTD/svg11.dtd">
<svg version="1.1" id="Layer_1" xmlns="http://www.w3.org/2000/svg" xmlns:xlink="http://www.w3.org/1999/xlink" x="0px" y="0px"
	 width="96.428px" height="89.246px" viewBox="0 0 96.428 89.246" enable-background="new 0 0 96.428 89.246" xml:space="preserve">
<g>
	<polygon fill="#E35028" points="38.477,4.84 38.47,4.841 38.477,4.841 	"/>
	<path fill="#E35028" d="M17.721,9.871c0.049,0.113,0.23,0.272,0.301,0.25c0.135-0.042,0.32-0.188,0.334-0.31
		c0.122-1.001-0.254-1.857-0.829-2.757c-0.152,0.591-0.625,0.985-0.292,1.584C17.448,9.02,17.544,9.466,17.721,9.871z"/>
	<path fill="#E35028" d="M28.195,14.113c0.178-0.469,0.357-0.938,0.482-1.268c-0.321-0.069-0.321-0.069-0.354-1.209
		c-0.392-0.129-0.792-0.186-0.692,0.412c0.118,0.707-0.146,1.038-0.862,1.146c0.396,0.179,0.793,0.358,1.189,0.536
		C28.038,13.857,28.116,13.985,28.195,14.113z"/>
	<path fill="#E35028" d="M31.984,11.615c0.073,0.003,0.171-0.041,0.222-0.098c0.267-0.301,0.086-1.386-0.22-1.671
		c-0.154-0.144-0.235-0.386-0.3-0.6c-0.046-0.15-0.009-0.325-0.009-0.489c-0.08,0.002-0.16,0.003-0.239,0.005
		c0,0.537,0,1.074,0,1.669c0.103,0.287,0.234,0.669,0.379,1.046C31.84,11.539,31.924,11.612,31.984,11.615z"/>
	<path fill="#E35028" d="M32.217,12.512c-0.639,0.204-0.378-0.521-0.534-0.591c-0.332,0.432-0.625,0.814-0.919,1.196
		c0.019,0.044,0.037,0.089,0.056,0.134C31.286,13.004,31.751,12.758,32.217,12.512z"/>
	<path fill="#E35028" d="M21.227,18.754c-0.038-0.397-0.012-0.817-0.092-0.838c-0.289-0.077-0.613-0.021-0.924-0.014
		c0.004,0.063,0.009,0.125,0.014,0.188C20.488,18.266,20.753,18.441,21.227,18.754z"/>
	<path fill="#E35028" d="M28.427,16.341c-0.028-0.084-0.056-0.168-0.084-0.253c-0.57,0.165-1.141,0.33-1.711,0.495
		c0.035,0.104,0.07,0.209,0.105,0.314C27.299,16.712,27.863,16.527,28.427,16.341z"/>
	<path fill="#E35028" d="M31.346,20.758c0.202-1.055,0-1.443-0.587-1.341c0.107,0.23,0.216,0.456,0.317,0.686
		C31.17,20.319,31.256,20.54,31.346,20.758z"/>
	<path fill="#E35028" d="M23.365,18.161c0.009-0.087,0.019-0.173,0.028-0.26c-0.466-0.029-0.933-0.06-1.399-0.089
		c-0.009,0.082-0.017,0.164-0.026,0.245C22.406,18.318,22.891,18.192,23.365,18.161z"/>
	<path fill="#E35028" d="M19.436,14.971c0.023-0.036-0.202-0.229-0.294-0.331c-0.201,0.479-0.355,0.849-0.521,1.242
		C19.334,15.974,19.219,15.308,19.436,14.971z"/>
	
		<ellipse transform="matrix(-0.3664 -0.9305 0.9305 -0.3664 61.125 137.0016)" fill="#E35028" cx="77.211" cy="47.688" rx="3.916" ry="2.001"/>
	<path fill="#E35028" d="M85.938,53.005c0.99-0.389,1.951-0.768,2.959-1.164c-0.6-2.768-1.455-5.434-2.572-7.988
		c-0.137,0.318-0.271,0.631-0.404,0.943c-0.555-0.69-1.34-1.301-1.611-2.09c-0.4-1.171-0.438-2.467-0.637-3.747
		c0.041,0.003,0.076,0.013,0.117,0.017c-0.503-0.828-1.035-1.642-1.601-2.441c-0.243,0.304-0.481,0.602-0.744,0.93
		c0.244,0.235,0.624,0.601,1.499,1.444c-0.932,0.167-1.782,0.32-2.603,0.467C83.112,43.547,84.998,48.091,85.938,53.005z"/>
	<path fill="#E35028" d="M73.63,28.609c-4.239-2.097-7.98-0.293-9.346,4.169c-3.016,9.861,5.682,30.517,14.91,35.409
		c4.231,2.242,7.933,0.942,10.102-4.42c0.121-1.253,0.692-3.572,0.507-5.832c-0.143-1.76-0.381-3.484-0.709-5.173
		c-1.016,0.887-2.002,1.339-2.957,1.366c0.281,1.762,0.44,3.572,0.478,5.428c0.05,0.178,0.101,0.355,0.161,0.51
		c-0.053-0.004-0.098-0.006-0.15-0.01c-0.002,1.923-0.927,4.756-2.291,5.45c-1.328,0.674-4.39-0.318-5.68-1.597
		c-7.786-7.723-12.024-17.133-11.599-28.229c0.07-1.815,0.517-3.11,1.282-3.892c-0.414-0.395-0.823-0.789-1.24-1.186
		c1.071-0.653,1.916-0.542,2.579,0.411c0.972-0.245,2.188-0.055,3.614,0.585c0.513,0.409,1.516,1.037,2.308,1.867
		c0.895,0.939,1.736,1.901,2.527,2.886c0.658-0.485,1.681-0.768,3.231-0.958c-0.69-0.91-1.422-1.802-2.197-2.672
		C77.659,31.034,75.663,29.615,73.63,28.609z"/>
	<path fill="#E35028" d="M52.9,42.562c0.029,0.125,0.06,0.249,0.09,0.374c0.611-0.077,1.223-0.157,1.834-0.235
		c-0.14-0.226-0.279-0.451-0.42-0.678C53.903,42.202,53.402,42.383,52.9,42.562z"/>
	<path fill="#E35028" d="M40.594,54.901c-0.063-0.173-0.346-0.263-0.467-0.347c-0.846,0.59-1.217,1.316-1.041,1.978
		c0.049,0.187,0.347,0.472,0.476,0.444C40.147,56.853,40.816,55.501,40.594,54.901z"/>
	<path fill="#E35028" d="M19.62,61.155c0.175,0.075,0.457-0.015,0.65-0.108c0.078-0.039,0.086-0.301,0.061-0.449
		c-0.081-0.48-0.191-0.955-0.318-1.562c-0.291,0.312-0.488,0.511-0.672,0.722C18.979,60.171,19.111,60.939,19.62,61.155z"/>
	<path fill="#E35028" d="M10.652,62.533c0.228,0.166,0.46,0.33,0.859,0.617c-0.137-1.3-0.552-1.799-1.498-1.979
		c-0.132-0.025-0.376,0.083-0.424,0.195c-0.051,0.113,0.024,0.357,0.128,0.453C10.004,62.082,10.335,62.299,10.652,62.533z"/>
	<path fill="#E35028" d="M28.492,69.677c-0.01-0.261,0.081-0.627-0.055-0.757c-0.19-0.183-0.549-0.188-0.835-0.269
		c-0.06,0.104-0.119,0.209-0.178,0.312c0.314,0.317,0.628,0.634,0.941,0.95C28.407,69.834,28.45,69.756,28.492,69.677z"/>
	<path fill="#E35028" d="M24.371,56.123c-0.025,0.103,0.199,0.384,0.275,0.371c0.192-0.032,0.421-0.146,0.53-0.3
		c0.141-0.2,0.179-0.472,0.258-0.703c-0.235,0.039-0.503,0.026-0.706,0.134C24.562,55.714,24.417,55.935,24.371,56.123z"/>
	<path fill="#E35028" d="M45.043,49.934l0.411,0.53l9.854-11.57l-1.776-1.666l-0.283,0.095c-5.436,1.833-7.798,6.462-9.381,10.704
		l-0.097,0.261l0.725,0.937c0,0-0.001,0-0.001,0C44.681,49.671,44.842,49.893,45.043,49.934z"/>
	<path fill="#E35028" d="M58.324,71.693c-0.531,0.069-1.061,0.138-1.592,0.207c-0.164-0.083-0.329-0.165-0.494-0.249
		c0.116,0.607,0.232,1.212,0.314,1.639c0.381-0.136,0.381-0.136,1.152,1.035c0.492-0.118,0.947-0.318,0.457-0.877
		C57.582,72.785,57.644,72.269,58.324,71.693z"/>
	<path fill="#E35028" d="M56.219,57.87c0.249,0.023,0.729-0.19,1.071-0.378c0.137-0.075,0.251-0.395,0.267-0.564
		c0.054-0.549,0.057-1.081,0.085-1.766c-0.579,0.487-0.968,0.802-1.339,1.127C55.574,56.923,55.492,57.801,56.219,57.87z"/>
	<path fill="#E35028" d="M40.977,61.521c-0.2,0.02-0.627,0.244-0.747,0.396c-0.125,0.156-0.098,0.422,0.031,0.499
		c0.357,0.208,0.799,0.346,1.213,0.507c0.298,0.115,0.605,0.225,1.129,0.42C42.878,61.828,42.409,61.38,40.977,61.521z"/>
	<path fill="#E35028" d="M41.605,67.251c0.485-0.947,0.485-0.947-0.847-1.172C40.466,67.342,40.466,67.342,41.605,67.251z"/>
	<path fill="#E35028" d="M54.809,69.681c0.49-0.54,0.979-1.081,1.47-1.623c-0.104-0.087-0.209-0.174-0.313-0.261
		c-0.469,0.559-0.939,1.115-1.408,1.674C54.641,69.542,54.725,69.612,54.809,69.681z"/>
	<path fill="#E35028" d="M65.106,63.619c-0.806,0.363-0.255,0.985-0.264,1.479c-0.001,0.051,0.358,0.109,0.522,0.156
		C65.265,64.622,65.188,64.134,65.106,63.619z"/>
	<path fill="#E35028" d="M83.958,76.7c-0.457-0.151-0.842-0.279-1.228-0.406C83.084,77.134,83.34,77.199,83.958,76.7z"/>
	<path fill="#E35028" d="M58.303,80.833c0.601,0.188,1.201,0.375,1.801,0.561c0.022-0.082,0.045-0.164,0.066-0.246
		c-0.607-0.168-1.215-0.334-1.822-0.502C58.333,80.708,58.318,80.771,58.303,80.833z"/>
	<path fill="#E35028" d="M51.354,80.615c0.012-0.261,0.021-0.503,0.043-0.995c-0.504,0.376-0.821,0.615-1.069,0.803
		C50.683,80.489,51.002,80.549,51.354,80.615z"/>
	<path fill="#E35028" d="M78.563,24.417c-0.021,0.228-0.158,0.511-0.305,0.665c-0.102,0.109-0.576,0.005-0.771-0.142
		c-0.711-0.533-1.318-1.217-2.065-1.675c-0.329-0.202-0.524-0.44-0.652-0.702c-2.858-1.001-6.935-1.46-10.011-0.271l-0.407,0.159
		c-13.353,5.257-22.478,13.608-27.899,25.529c-0.959,2.11-1.996,4.209-3.181,6.194c0.24,0.004,0.481,0.013,0.723,0.016
		c-0.284,0.188-0.585,0.248-0.889,0.264c-2.709,4.465-6.206,8.318-11.381,10.357c-1.17,0.46-2.42,0.823-3.714,1.079
		c-1.438,0.283-4.13,0.624-6.334-0.126c-0.088-0.173-0.32-0.296-0.838-0.559c0.007,0.113,0.014,0.209,0.021,0.301
		c-3.879-1.289-6.788-0.599-8.956,2.124c-2.577,3.239-2.535,6.777,0.124,10.23c0.95,1.232,1.616,2.724,1.782,3.991
		c0.563,4.308,3.031,6.841,7.136,7.327c3.995,0.476,6.835-1.563,8.252-5.925c0.375-1.153,0.979-2.752,1.889-3.302
		c8.808-5.333,17.519-6.339,25.977-3.032c-0.078,0.366,0.083,0.818-0.105,1.189c0.531-0.25,0.806-0.553,0.854-0.902
		c0.638,0.262,1.276,0.51,1.915,0.742c0.026-0.64,0.093-1.281,0.016-1.906c-0.121-0.98,0.493-1.423,1.097-1.986l-0.064-0.021
		c-2.474-0.805-5.033-1.637-7.626-2.138l-0.53-0.102c-7.392-1.424-7.392-1.424-9.713-7.974c-0.336-0.949,0.237-2.565,0.831-3.66
		c1.787-3.3,3.718-6.598,5.586-9.787c0.692-1.182,1.384-2.363,2.07-3.548c1.098-1.894,2.282-3.648,3.551-5.295
		c-0.317-0.155-0.648-0.316-1.019-0.498c0.208-0.168,0.61-0.581,0.672-0.533c0.237,0.172,0.57,0.259,0.878,0.372
		c1.515-1.891,3.145-3.641,4.938-5.24c0.101-0.824,0.203-1.648,0.298-2.471c0.168,0.028,0.336,0.056,0.502,0.083
		c0.006,0.571,0.08,1.155,0.005,1.711c1.948-1.653,4.054-3.172,6.374-4.555c-0.766,5.886-0.645,11.38,0.352,16.519
		c0.307-0.338,0.637-0.682,1.021-0.793c0.376-0.109,0.893,0.256,1.379,0.42c-0.777,1.52-0.513,2.715,0.672,3.545
		c0.212,0.146,0.584,0.08,0.883,0.085c0.341,0.007,0.68,0.005,1.021,0.01c-1.627-4.965-2.162-10.055-1.572-15.234
		c0.205-1.801,0.646-3.402,1.281-4.768c-0.021-0.096-0.047-0.194-0.078-0.288c0.119-0.093,0.258-0.201,0.394-0.308
		c0.268-0.498,0.561-0.96,0.884-1.381c-0.042-0.389-0.35-0.75-0.93-1.053c-0.516-0.267-1.04-0.525-1.587-0.708
		c-0.974-0.327-0.981-0.841-0.358-1.644c0.967,1.419,1.989,2.268,3.696,1.761c0.272-0.081,0.514-0.018,0.694,0.13
		c0.529-0.405,1.09-0.754,1.704-0.996c3.004-1.183,6.716-0.198,10.184,2.703c10.96,9.167,15.76,20.904,14.268,34.885
		c-0.437,4.079-2.146,6.818-4.946,7.921c-2.496,0.982-5.822,0.622-9.621-1.041c-0.398-0.387-0.91-0.844-1.492-1.362
		c-1.646-1.468-3.902-3.478-5.668-5.813c-2.945-3.895-5.141-7.899-6.586-11.993c-0.086,0.083-0.166,0.173-0.225,0.269
		c-0.068,0.108-0.125,0.225-0.187,0.337c-0.157,0.016-0.313,0.035-0.444,0.104c-0.051,0.027-0.092,0.082-0.136,0.129
		c0.105-0.235,0.232-0.517,0.415-0.92c-1.57,1.318-2.064-0.316-3.012-0.613c-1.721-0.539,0.329-2.003-0.789-3.016
		c-0.212,0.154-0.439,0.322-0.675,0.494c0.544,2.533,1.285,4.986,2.269,7.346c0.177,0.049,0.336,0.113,0.444,0.211
		c0.112,0.102,0.096,0.482,0.001,0.764c2.158,4.82,5.269,9.273,9.31,13.397c-0.076-0.06-0.149-0.124-0.229-0.18
		c-0.125-0.086-0.417-0.135-0.478-0.067c-0.113,0.132-0.213,0.403-0.148,0.54c0.518,1.126,1.465,1.778,2.646,2.348
		c-0.112-0.359-0.107-0.719-0.168-1.04c1.387,1.305,2.857,2.58,4.445,3.815c-7.755,2.089-14.853,2.115-22.104,0.128
		c0.023-0.233,0.047-0.465,0.07-0.692c-0.049-0.035-0.096-0.068-0.146-0.104c-0.13,0.222-0.26,0.442-0.39,0.664
		c-0.453-0.13-0.904-0.239-1.359-0.385l-0.788-0.254c0.208,1.481,0.168,2.845-0.403,4.143c7.225,2.378,14.58,2.879,22.225,1.502
		c-0.003-0.005-0.006-0.012-0.008-0.017c0.123-0.049,0.246-0.097,0.367-0.145c0.01,0.029,0.021,0.06,0.031,0.089
		c2.544-0.479,5.12-1.158,7.734-2.053c-0.072-0.009-0.139-0.018-0.219-0.027c0.64-0.71,1.127-1.279,1.651-1.82
		c0.161-0.166,0.496-0.394,0.615-0.332c0.292,0.154,0.659,0.423,0.726,0.71c0.037,0.154,0.028,0.308,0,0.457
		c0.002-0.001,0.004-0.001,0.005-0.002c0.689-0.271,1.378-0.557,2.065-0.854c2.291-0.99,4.235-2.773,6.115-4.5
		c0.844-0.772,1.715-1.572,2.598-2.279l0.117-0.095l0.047-0.144C99.797,54.474,91.02,32.176,78.563,24.417z M31.453,59.208
		c0.661,0.428,0.661,0.428,0.339,1.471C31.059,59.87,31.059,59.87,31.453,59.208z M30.403,62.39c0.275,0.417,0.437,0.656,0.593,0.9
		c0.216,0.336,0.452,0.662,0.63,1.018c0.064,0.129,0.046,0.389-0.043,0.479c-0.087,0.088-0.358,0.103-0.476,0.03
		C30.273,64.302,30.06,63.675,30.403,62.39z M29.444,65.761c-0.003-0.001-0.006-0.003-0.009-0.004
		c0.001-0.001,0.002-0.002,0.004-0.003C29.441,65.756,29.443,65.758,29.444,65.761z M17.333,67.016
		c0.503,0.396,1.007,0.793,1.511,1.189c-0.038,0.055-0.075,0.108-0.112,0.163c-0.517-0.381-1.034-0.761-1.551-1.141
		C17.233,67.157,17.283,67.087,17.333,67.016z M4.015,75.167c-0.082,0.044-0.341-0.11-0.428-0.238
		c-0.313-0.456-0.535-0.981-0.885-1.402c-0.551-0.659-0.061-1.255-0.012-2.017c0.918,0.973,1.582,1.938,1.665,3.198
		C4.365,74.861,4.172,75.084,4.015,75.167z M6.102,82.115c0.11-0.522,0.214-1.011,0.349-1.65c0.138,0.104,0.459,0.291,0.439,0.338
		C6.703,81.269,7.001,82.062,6.102,82.115z M8.591,84.458c-0.021-0.075-0.041-0.151-0.062-0.229c0.381-0.08,0.768-0.227,1.141-0.198
		c0.104,0.008,0.169,0.528,0.31,1.011C9.324,84.765,8.958,84.613,8.591,84.458z M16.323,81.464c-0.067-0.12-0.135-0.239-0.203-0.362
		c0.664-0.335,1.328-0.671,1.99-1.011c0.055,0.099,0.109,0.196,0.164,0.293C17.624,80.744,16.973,81.105,16.323,81.464z
		 M22.04,74.785c-0.515,0.413-1.031,0.825-1.546,1.237c-0.033-0.051-0.066-0.101-0.101-0.151c0.071-0.139,0.143-0.281,0.213-0.423
		c-0.531,0.266-1.055,0.547-1.563,0.851c-0.548,0.327-1.075,0.776-1.557,1.287c-0.007,0.037-0.013,0.074-0.02,0.111
		c-0.014-0.016-0.028-0.03-0.043-0.047c-0.942,1.02-1.688,2.294-1.967,3.479c-0.754,3.2-2.123,4.494-4.264,3.83
		c-0.92-0.286-1.671-1.873-2.334-3.273c-0.254-0.538-0.506-1.067-0.765-1.535c-0.761-1.371-1.356-2.765-1.768-4.142
		c-0.147-0.492-0.34-1.021-0.536-1.558c-0.535-1.464-1.141-3.123-0.695-3.984c0.374-0.724,0.86-1.207,1.443-1.437
		c1.337-0.526,3.029,0.297,4.214,1.08c0.586,0.387,1.331,0.665,2.127,0.839c-0.582,0.302-1.339,0.352-1.782,0.976
		c0.381-0.142,0.778-0.255,1.14-0.437c0.298-0.147,0.529-0.365,0.787,0.066c0.258,0.431,0.538,0.293,0.809-0.033
		c0.264-0.315,0.381-0.613,0.313-0.907c0.076-0.145,0.151-0.288,0.227-0.432c0.078,0.029,0.155,0.061,0.232,0.091
		c-0.05,0.037-0.104,0.069-0.144,0.116c0.16,0.021,0.308,0.042,0.462,0.063c-0.064,0.234-0.128,0.47-0.192,0.704
		c0.679-0.001,1.346-0.074,1.941-0.249c1.679-0.492,3.717-1.363,5.595-2.203c1.494-0.668,3.036-1.356,4.597-1.883
		c0.757-0.256,1.976-0.081,2.839,0.349c-0.097-0.245-0.194-0.491-0.292-0.738c0.11,0.042,0.222,0.086,0.332,0.128
		c0.061-0.063,0.122-0.127,0.183-0.19c0.166,0.185,0.354,0.348,0.532,0.52c0.163-0.224,0.373-0.428,0.476-0.677
		c0.105-0.258,0.107-0.559,0.173-0.961c0.295,0.425,0.519,0.744,0.721,1.034c-0.777,0.97,0.585,0.715,0.63,1.276
		c-0.088,0.054-0.226,0.139-0.389,0.237c0.168,0.361,0.602,0.767-0.06,1.056c-0.245-0.306-0.467-0.583-0.689-0.858
		c-0.102,0.049-0.205,0.098-0.308,0.146c0.106,0.444,0.094,0.987,0.356,1.301c0.221,0.264,0.761,0.261,1.216,0.393
		c0.038,0.65-0.554,0.322-0.94,0.499c-0.379-0.11-0.779-0.206-1.255-0.333c0.03,0.356,0.076,0.667,0.077,0.965
		c-0.082,0.049-0.172,0.102-0.251,0.149c-0.224,0.135-0.425,0.252-0.634,0.375c-0.004-0.005-0.01-0.008-0.015-0.013
		c-0.27-0.303-0.509-0.633-0.76-0.949c-0.055,0.045-0.109,0.089-0.165,0.134c0.154,0.469,0.285,0.837,0.427,1.123
		c-0.289,0.16-0.573,0.313-0.86,0.439c-0.134,0.059-0.272,0.114-0.407,0.173c0.49-0.089,0.98-0.176,1.465-0.287
		c0.042,0.054,0.09,0.094,0.138,0.136c-0.576,0.088-1.151,0.184-1.739,0.209c-0.842,0.36-1.7,0.709-2.539,1.041
		c-1.075,0.427-2.167,0.864-3.241,1.347C21.935,74.829,21.98,74.817,22.04,74.785z M31.245,72.243
		c0.036-0.013,0.063-0.018,0.101-0.03c-0.007,0.014-0.017,0.025-0.024,0.039C31.296,72.249,31.271,72.246,31.245,72.243z
		 M27.438,76.34c-0.19-0.85,0.192-1.333,1.212-1.41C28.148,75.384,28.42,76.355,27.438,76.34z M33.091,71.129
		c0.583,0.025,1.182-0.298,1.773-0.469c0.042,0.115,0.082,0.23,0.123,0.346c-0.762,0.208-1.532,0.418-2.327,0.635
		c-0.051-0.105-0.074-0.225-0.026-0.355c0.032-0.09,0.047-0.165,0.054-0.233C32.821,71.095,32.956,71.124,33.091,71.129z
		 M84.997,34.565c-0.099-0.849-0.19-1.645-0.313-2.685c0.261,0.085,0.845,0.206,0.839,0.285
		C85.477,32.973,86.34,34.024,84.997,34.565z M61.991,52.291c0.009,0.023,0.021,0.047,0.037,0.072
		c-0.019-0.01-0.037-0.021-0.056-0.031C61.979,52.318,61.985,52.304,61.991,52.291z M90.344,70.799
		c-0.466-0.479-0.941-0.531-1.396-0.196c-0.081,0.06-0.104,0.207-0.143,0.316c-0.124,0.344-0.246,0.688-0.363,1.034
		c-0.053,0.161-0.094,0.328-0.154,0.54c-0.438-0.178-0.873-0.354-1.307-0.528c0.009-0.045,0.018-0.09,0.025-0.131
		c0.181,0.032,0.365,0.05,0.539,0.104c0.233,0.072,0.412,0.088,0.48-0.213c0.012-0.056,0.116-0.092,0.179-0.138
		c0.063-0.045,0.185-0.095,0.181-0.135c-0.007-0.097-0.055-0.202-0.117-0.277c-0.115-0.143-0.252-0.268-0.381-0.401
		c0.037-0.033,0.074-0.066,0.111-0.099c0.108,0.102,0.218,0.202,0.443,0.414c-0.291-0.747,0.376-0.725,0.604-1.038
		c0.417-0.569,0.7,0.374,1.216,0.087c-0.061-0.192-0.129-0.413-0.199-0.633c0.032-0.03,0.064-0.061,0.098-0.09
		c0.097,0.112,0.217,0.212,0.287,0.341c0.1,0.186,0.233,0.394,0.225,0.586C90.665,70.496,90.465,70.64,90.344,70.799z M93.356,51.99
		c0.474,0.124,0.535,0.275,0.244,0.758C93.524,52.509,93.447,52.271,93.356,51.99z M93.728,66.14c0.228-0.229,0.44-0.443,0.72-0.724
		c0.035,0.097,0.137,0.298,0.112,0.315C94.311,65.908,94.203,66.41,93.728,66.14z M94.741,68.903
		c-0.243-0.355-0.38-0.554-0.516-0.753c0.015-0.045,0.028-0.091,0.044-0.137c0.221,0.083,0.465,0.136,0.646,0.272
		C94.965,68.324,94.827,68.61,94.741,68.903z M94.944,61.92c-0.056-0.004-0.138-0.169-0.14-0.261
		c-0.01-0.336,0.049-0.676,0.01-1.004c-0.064-0.517,0.381-0.658,0.654-1.031c0.148,0.797,0.17,1.506-0.201,2.175
		C95.223,61.88,95.052,61.931,94.944,61.92z"/>
	<path fill="#E35028" d="M23.792,35.739c-0.009,0.086-0.019,0.173-0.028,0.26c-0.399,0.027-0.804,0.106-1.184-0.021l0.37,0.626
		c0.071,0.223,0.281,0.849,0.497,1.141l-0.004,0.003l0.788,1.101l0.346,0.424c1.129,1.266,2.626,2.044,4.712,2.45
		c1.172,0.229,2.083,0.519,2.927,0.935l0.31,0.106c0.363,0.08,0.631,0.198,0.844,0.372l0.97,0.431l0.173-0.511
		c0.091-0.269,0.244-0.528,0.405-0.803c0.244-0.414,0.495-0.842,0.592-1.378l0.056-0.311l-0.256-0.184
		c-1.081-0.776-2.304-1.142-3.487-1.496c-0.33-0.099-0.66-0.197-0.983-0.304c-0.058-0.02-0.116-0.038-0.175-0.056
		c0.259-0.252,0.497-0.517,0.712-0.802c-0.072-0.156-0.144-0.312-0.217-0.469c0.198-0.035,0.349-0.008,0.459,0.077
		c0.078-0.128,0.171-0.241,0.236-0.383c0.25-0.554,0.424-1.115,0.536-1.741c1.09,1.032,2.422,1.911,4.149,1.911
		c0.416,0,0.847-0.053,1.282-0.156l0.154-0.037l0.105-0.119c1.152-1.303,2.226-2.688,3.19-4.113l0.091-0.135l-0.006-0.163
		c-0.042-1.233-0.479-2.303-1.005-3.386c1.398,0.212,2.736,0.037,4.101-0.545c2.024-0.864,3.344-2.338,3.924-4.38
		c0.103-0.363,0.185-0.718,0.246-1.065l0.235-0.266l-0.202,0.068c0.308-2-0.088-3.746-1.199-5.308
		c-0.254-0.359-0.549-0.686-0.9-0.998l-2.62-1.213l-0.781,1.609c-0.345-0.405-0.67-0.787-0.797-1.225l-0.129-0.389l-0.407,0.051
		c-0.794,0.099-1.479-0.018-2.017-0.4c0.666,0.033,1.304-0.013,1.919-0.135l0.442-0.088l-0.042-0.449
		c-0.025-0.27-0.044-0.542-0.064-0.815c-0.01-0.145-0.021-0.289-0.032-0.434c0.678,0.133,1.322,0.349,1.952,0.655l0.271,0.131
		l0.242-0.177c1.045-0.762,1.706-1.798,2.195-2.811c0.054,0.098,0.104,0.199,0.155,0.303c0.088,0.177,0.176,0.351,0.278,0.514
		c1.382,2.186,3.3,3.39,5.403,3.39c1.408,0,2.844-0.557,4.152-1.61c0.576-0.466,0.922-1.08,1.223-1.702
		c0.404,1.083,0.605,1.987,0.642,2.844c0.081,1.955,0.669,3.77,1.8,5.551l0.197,0.312l0.629-0.171
		c0.758-0.204,1.542-0.415,2.278-0.815l0.526-0.287l-0.377-0.467c-1.045-1.293-1.549-2.483-1.582-3.739l0.048-0.042l-0.058-0.422
		c0.057-0.828-0.161-1.58-0.374-2.313l-0.038-0.094c-0.107-0.205-0.145-0.332-0.133-0.451l0.012-0.107l-0.033-0.102
		c-0.069-0.209-0.123-0.422-0.176-0.636c-0.11-0.436-0.224-0.886-0.457-1.328l-0.115-0.221c-0.644-1.227-1.309-2.496-2.295-3.575
		l-0.178-0.125c-0.082-0.034-0.154-0.114-0.318-0.362c-0.739-0.8-1.776-1.767-3.217-2.139l-0.684-0.197
		c-0.17-0.021-0.34-0.045-0.51-0.069c-0.61-0.087-1.209-0.183-1.922-0.116l-0.412,0.047l-0.378,0.064l-0.883,0.564l0.617,0.43
		c0.11,0.076,0.23,0.137,0.35,0.197c0.157,0.078,0.257,0.129,0.306,0.2l0.074,0.084c0.293,0.266,0.61,0.473,0.918,0.673
		c0.273,0.179,0.533,0.349,0.764,0.551c1.012,0.885,1.66,1.953,1.979,3.265c0.269,1.102-0.022,1.917-0.866,2.422
		c-1.14,0.684-2.156,0.633-3.029-0.174c-1.146-1.057-1.902-2.446-2.311-4.249c-0.116-0.512-0.232-1.106-0.139-1.675l0.023-0.144
		L48.38,4.442c-0.453-1.08-0.922-2.197-2.107-2.893c-0.217-0.126-0.417-0.271-0.619-0.415c-0.495-0.354-1.056-0.754-1.836-0.909
		c-0.63-0.123-1.239-0.142-1.828-0.16c-0.337-0.01-0.673-0.021-0.957-0.043c-0.553-0.116-1.083,0.223-1.38,0.472
		c-0.222,0.186-0.329,0.396-0.316,0.626c0.019,0.344,0.286,0.521,0.445,0.627c0.012,0.008,0.025,0.016,0.037,0.024l0.016,0.515
		l0.617-0.19c0.004,0.001,0.031,0.011,0.107,0.065c1.006,0.728,1.865,1.655,2.603,2.793c0.531,1.024,0.766,1.99,0.719,2.952
		c-0.086,1.693-0.715,2.741-1.977,3.298c-0.463,0.205-0.924,0.32-1.408,0.353l-1.058,0.072l0.337,0.357l-3.824,0.498
		c0.048-1.191,0.277-1.807,0.787-2.189l0.371-0.278L36.86,9.628c-0.348-0.547-0.598-1.176-0.762-1.918
		c-0.068-0.317-0.112-0.638-0.156-0.958l-0.05-0.356l-0.179-0.377l-0.717-0.115l-0.688,1.342c-0.499,1.621-0.51,3.298-0.014,5.195
		c0.025,0.061,0.056,0.12,0.088,0.179c0.015,0.03,0.036,0.07,0.046,0.05l-0.05,0.175l0.088,0.175
		c0.11,0.219,0.221,0.439,0.321,0.665c0.937,2.09,2.436,4.56,5.839,5.116l1.994-0.056l0.142-0.025
		c0.158-0.052,0.31-0.083,0.453-0.093l0.131,0.18l0.087-0.179c0.339,0.031,0.645,0.195,0.935,0.505
		c0.046,0.048,0.096,0.094,0.114,0.108c0.9,0.976,1.099,2.13,0.627,3.819c-0.035,0.28-0.13,0.515-0.328,0.768
		c-0.117,0.189-0.249,0.356-0.386,0.512l-1.239,1.406l2.033-0.69c-1.111,0.787-2.121,0.984-3.051,0.571l-0.22-0.098l-0.213,0.111
		c-0.263,0.135-0.512,0.113-0.851-0.065l-0.098-0.04c-0.546-0.153-0.957-0.569-1.428-1.045c-0.639-0.648-0.909-1.496-1.195-2.394
		c-0.167-0.523-0.339-1.064-0.592-1.579l-0.113-0.231l-0.819-0.132l-0.151,0.366c-0.52,1.258-0.724,2.579-0.922,3.857l-0.074,0.516
		l-0.001,0.23l0.33,2.438l0.052,0.175c0.204,0.403,0.413,0.803,0.622,1.204c0.454,0.869,0.922,1.768,1.327,2.669
		c0.28,0.623,0.218,1.172-0.183,1.631c-0.343,0.392-0.812,0.373-1.588,0.265c-0.522-0.073-0.901-0.449-1.127-0.751
		c-0.511-0.684-0.759-1.674-0.626-2.59l0.002-0.251l-0.256-0.025l0.248-0.034l-0.062-0.44c-0.529-2.125-2.036-3.475-3.176-4.338
		c-0.093-0.063-0.357-0.296-0.465-0.392l-0.171-0.1c-0.138-0.05-0.866-0.4-0.995-0.497l-0.359-0.147
		c-0.247-0.082-1.153-0.191-1.433-0.148l-0.982-0.054c-0.029,0-2.984,0.325-3.168,1.162l-0.073,0.332l0.281,0.19
		c0.708,0.478,1.293,0.971,1.82,1.538c0.227,0.206,0.449,0.411,0.669,0.617c0.272,0.474,0.457,0.744,0.595,0.896
		c0.051,0.098,0.129,0.239,0.219,0.402c0.197,0.354,0.527,0.946,0.594,1.16l0.047,0.105c0.1,0.168,0.203,0.36,0.306,0.547
		c0.145-0.185,0.184-0.445,0.125-0.802c-0.1-0.597,0.3-0.541,0.692-0.412c0.033,1.14,0.033,1.14,0.354,1.209
		c-0.125,0.329-0.304,0.798-0.482,1.268c-0.079-0.128-0.158-0.256-0.237-0.384c-0.008-0.003-0.016-0.007-0.023-0.011
		c0.334,0.745,0.614,1.575,0.687,2.482c0.111,1.346-0.493,2.246-1.62,2.431l-0.792-0.035l-0.065,0.012
		c-0.358,0.066-0.67-0.085-1.052-0.261c-0.157-0.072-0.314-0.144-0.475-0.204l-3.079-2.246l0.546,1.919
		C22.92,35.684,23.356,35.712,23.792,35.739z M31.837,26.601c0.08-0.002,0.159-0.003,0.239-0.005c0,0.164-0.037,0.339,0.009,0.489
		c0.065,0.213,0.146,0.456,0.3,0.6c0.306,0.285,0.487,1.37,0.22,1.671c-0.05,0.057-0.148,0.101-0.222,0.098
		c-0.06-0.003-0.144-0.076-0.167-0.137c-0.146-0.377-0.277-0.76-0.379-1.046C31.837,27.675,31.837,27.138,31.837,26.601z
		 M32.083,29.759c0.156,0.069-0.105,0.794,0.534,0.591c-0.466,0.246-0.932,0.493-1.397,0.739c-0.019-0.045-0.038-0.089-0.056-0.134
		C31.457,30.573,31.75,30.191,32.083,29.759z"/>
</g>
</svg>
